<svg width="16" height="16" viewBox="0 0 24 24" fill="none" xmlns="http://www.w3.org/2000/svg">
  <path fill-rule="evenodd" clip-rule="evenodd" d="M12 0C5.373 0 0 5.373 0 12c0 5.303 3.438 9.8 8.207 11.387.6.113.82-.26.82-.577 0-.285-.01-1.04-.016-2.04-3.338.724-4.042-1.61-4.042-1.61-.546-1.385-1.333-1.755-1.333-1.755-1.09-.745.082-.73.082-.73 1.204.085 1.838 1.235 1.838 1.235 1.07 1.835 2.808 1.305 3.492.997.108-.774.42-1.306.764-1.606-2.665-.303-5.467-1.332-5.467-5.931 0-1.31.469-2.382 1.236-3.222-.124-.303-.536-1.523.116-3.176 0 0 1.008-.322 3.302 1.23a11.51 11.51 0 013.008-.403c1.02.005 2.045.138 3.006.404 2.292-1.554 3.3-1.231 3.3-1.231.654 1.654.242 2.874.118 3.176.77.84 1.234 1.913 1.234 3.222 0 4.61-2.807 5.625-5.48 5.921.431.372.815 1.104.815 2.227 0 1.607-.014 2.903-.014 3.293 0 .32.218.694.824.576C20.565 21.798 24 17.3 24 12c0-6.627-5.373-12-12-12z" fill="white"/>
</svg>
